<?xml version="1.0" encoding="UTF-8" standalone="no"?>
<svg
   xmlns:dc="http://purl.org/dc/elements/1.1/"
   xmlns:cc="http://creativecommons.org/ns#"
   xmlns:rdf="http://www.w3.org/1999/02/22-rdf-syntax-ns#"
   xmlns:svg="http://www.w3.org/2000/svg"
   xmlns="http://www.w3.org/2000/svg"
   viewBox="0 0 377.95334 138.84267"
   height="138.84267"
   width="377.95334"
   xml:space="preserve"
   id="svg2"
   version="1.1"><metadata
     id="metadata8"><rdf:RDF><cc:Work
         rdf:about=""><dc:format>image/svg+xml</dc:format><dc:type
           rdf:resource="http://purl.org/dc/dcmitype/StillImage" /></cc:Work></rdf:RDF></metadata><defs
     id="defs6"><clipPath
       id="clipPath22"
       clipPathUnits="userSpaceOnUse"><path
         id="path20"
         d="M 0,104.132 H 283.465 V 0 H 0 Z" /></clipPath></defs><g
     transform="matrix(1.3333333,0,0,-1.3333333,0,138.84267)"
     id="g10"><path
       id="path12"
       style="fill:#851719;fill-opacity:1;fill-rule:nonzero;stroke:none"
       d="M 0,0 H 34.861 V 3.833 H 0 Z" /><path
       id="path14"
       style="fill:#4a95a2;fill-opacity:1;fill-rule:nonzero;stroke:none"
       d="M 148.128,0 H 283.464 V 3.833 H 148.128 Z" /><g
       id="g16"><g
         clip-path="url(#clipPath22)"
         id="g18"><g
           transform="translate(16.8772,39.7767)"
           id="g24"><path
             id="path26"
             style="fill:#231f20;fill-opacity:1;fill-rule:nonzero;stroke:none"
             d="m 0,0 3.947,0.008 v -0.237 c 0,-0.492 0.12,-0.824 0.361,-0.998 0.24,-0.172 0.744,-0.259 1.511,-0.259 h 5.019 c 0.492,0 0.844,0.084 1.055,0.251 0.211,0.167 0.316,0.444 0.316,0.831 0,0.392 -0.122,0.674 -0.365,0.843 -0.242,0.17 -0.766,0.285 -1.569,0.343 L 4,0.923 C 2.43,0.97 1.368,1.269 0.813,1.819 c -0.553,0.552 -0.83,1.553 -0.83,3.006 0,0.75 0.073,1.368 0.22,1.855 0.147,0.486 0.38,0.89 0.702,1.213 0.382,0.363 0.88,0.621 1.495,0.773 0.616,0.153 1.618,0.229 3.006,0.229 h 6.1 c 1.512,0 2.599,-0.276 3.265,-0.827 0.666,-0.55 0.998,-1.444 0.998,-2.68 0,-0.082 -10e-4,-0.17 -0.005,-0.264 C 15.761,5.03 15.751,4.878 15.733,4.667 H 11.884 V 4.72 c 0,0.433 -0.111,0.759 -0.33,0.976 -0.22,0.216 -0.549,0.325 -0.989,0.325 H 5.96 C 5.192,6.021 4.685,5.944 4.439,5.792 4.193,5.64 4.07,5.374 4.07,4.992 4.07,4.617 4.182,4.346 4.404,4.179 4.627,4.012 5.037,3.905 5.635,3.858 l 6.574,-0.105 c 1.5,-0.041 2.556,-0.378 3.169,-1.011 0.611,-0.632 0.918,-1.714 0.918,-3.243 0,-0.908 -0.113,-1.611 -0.338,-2.109 C 15.731,-3.109 15.353,-3.533 14.819,-3.884 14.468,-4.107 13.99,-4.267 13.387,-4.364 12.783,-4.46 11.91,-4.509 10.768,-4.509 H 5.441 c -2.186,0 -3.647,0.245 -4.385,0.734 -0.74,0.489 -1.108,1.402 -1.108,2.738 0,0.076 0.004,0.203 0.013,0.382 C -0.03,-0.476 -0.017,-0.258 0,0" /></g><path
           id="path28"
           style="fill:#231f20;fill-opacity:1;fill-rule:nonzero;stroke:none"
           d="m 38.877,35.426 h -3.331 v 9.255 h 3.331 z m 0,10.372 h -3.331 v 2.715 h 3.331 z" /><g
           transform="translate(44.8802,35.4257)"
           id="g30"><path
             id="path32"
             style="fill:#231f20;fill-opacity:1;fill-rule:nonzero;stroke:none"
             d="M 0,0 H -3.331 V 9.203 H 0 V 7.779 C 0.381,8.347 0.869,8.75 1.464,8.987 2.059,9.225 2.956,9.343 4.157,9.343 5.663,9.343 6.793,9.062 7.545,8.5 8.299,7.937 8.675,7.096 8.675,5.977 V 0 H 5.353 v 4.659 c 0,0.82 -0.185,1.359 -0.554,1.617 C 4.43,6.534 3.724,6.663 2.681,6.663 1.714,6.663 1.025,6.494 0.615,6.157 0.205,5.82 0,5.256 0,4.465 Z" /></g><g
           transform="translate(57.0179,42.2636)"
           id="g34"><path
             id="path36"
             style="fill:#231f20;fill-opacity:1;fill-rule:nonzero;stroke:none"
             d="M 0,0 H -1.872 V 2.417 H 0 V 4.632 H 3.331 V 2.417 H 8.534 V 0 H 3.331 v -3.146 c 0,-0.486 0.098,-0.828 0.294,-1.024 0.196,-0.197 0.53,-0.294 0.999,-0.294 0.532,0 0.906,0.099 1.12,0.298 0.214,0.199 0.32,0.545 0.32,1.037 0,0.1 -0.008,0.261 -0.025,0.484 -0.007,0.023 -0.01,0.041 -0.01,0.053 h 2.954 c 0.011,-0.1 0.02,-0.207 0.026,-0.321 0.006,-0.114 0.009,-0.277 0.009,-0.488 0,-1.26 -0.366,-2.168 -1.099,-2.725 -0.732,-0.556 -1.93,-0.835 -3.595,-0.835 -1.593,0 -2.712,0.239 -3.356,0.716 C 0.322,-5.767 0,-4.938 0,-3.761 Z" /></g><path
           id="path38"
           style="fill:#231f20;fill-opacity:1;fill-rule:nonzero;stroke:none"
           d="m 73.928,38.45 h -5.924 v 3.349 h 5.924 z" /><g
           transform="translate(82.6555,40.7523)"
           id="g40"><path
             id="path42"
             style="fill:#231f20;fill-opacity:1;fill-rule:nonzero;stroke:none"
             d="m 0,0 h 5.028 l -2.54,4.632 z m -2.785,-5.327 h -4.36 L 0,7.761 H 5.099 L 12.111,-5.327 H 7.727 l -1.266,2.181 h -7.973 z" /></g><path
           id="path44"
           style="fill:#231f20;fill-opacity:1;fill-rule:nonzero;stroke:none"
           d="m 99.505,35.426 h -3.331 v 13.087 h 3.331 z" /><g
           transform="translate(105.1653,41.2797)"
           id="g46"><path
             id="path48"
             style="fill:#231f20;fill-opacity:1;fill-rule:nonzero;stroke:none"
             d="m 0,0 h 5.133 v 0.035 c 0,0.44 -0.139,0.75 -0.418,0.932 C 4.437,1.148 3.952,1.239 3.261,1.239 H 1.89 C 1.198,1.239 0.71,1.147 0.426,0.962 0.142,0.778 0,0.468 0,0.035 Z M 5.203,-2.777 H 8.341 V -2.918 C 8.341,-4.002 8.01,-4.783 7.348,-5.261 6.686,-5.738 5.593,-5.977 4.069,-5.977 H 0.976 c -1.395,0 -2.46,0.292 -3.196,0.875 -0.734,0.583 -1.102,1.425 -1.102,2.527 v 2.513 c 0,1.161 0.368,2.048 1.102,2.664 0.736,0.615 1.795,0.922 3.178,0.922 H 4.069 C 5.464,3.524 6.527,3.219 7.26,2.606 7.992,1.994 8.358,1.104 8.358,-0.062 V -2.039 H 0 c 0,-0.03 -0.003,-0.073 -0.009,-0.132 -0.006,-0.058 -0.009,-0.097 -0.009,-0.114 0,-0.533 0.154,-0.916 0.462,-1.147 0.308,-0.232 0.816,-0.347 1.525,-0.347 h 1.397 c 0.721,0 1.19,0.07 1.406,0.21 0.217,0.141 0.361,0.405 0.431,0.792" /></g><g
           transform="translate(118.9026,35.4257)"
           id="g50"><path
             id="path52"
             style="fill:#231f20;fill-opacity:1;fill-rule:nonzero;stroke:none"
             d="m 0,0 h -4.21 l 3.744,4.861 -3.621,4.394 H 0.325 L 2.101,6.838 3.867,9.255 H 8.156 L 4.729,4.967 8.763,0 H 4.43 L 2.162,3.059 Z" /></g><path
           id="path54"
           style="fill:#231f20;fill-opacity:1;fill-rule:nonzero;stroke:none"
           d="m 132.385,35.426 h -3.331 v 9.255 h 3.331 z m 0,10.372 h -3.331 v 2.715 h 3.331 z" /><g
           transform="translate(143.6448,44.6806)"
           id="g56"><path
             id="path58"
             style="fill:#231f20;fill-opacity:1;fill-rule:nonzero;stroke:none"
             d="M 0,0 H 3.33 V -9.255 H 0 v 1.424 c -0.37,-0.568 -0.85,-0.968 -1.441,-1.199 -0.592,-0.232 -1.497,-0.348 -2.717,-0.348 -1.553,0 -2.696,0.28 -3.432,0.839 -0.735,0.56 -1.103,1.432 -1.103,2.615 V 0 h 3.331 v -4.719 c 0,-0.797 0.178,-1.326 0.537,-1.587 0.356,-0.26 1.018,-0.391 1.985,-0.391 1.079,0 1.821,0.16 2.229,0.479 C -0.204,-5.898 0,-5.332 0,-4.517 Z" /></g><g
           transform="translate(149.0843,38.3524)"
           id="g60"><path
             id="path62"
             style="fill:#231f20;fill-opacity:1;fill-rule:nonzero;stroke:none"
             d="m 0,0 3.533,0.009 v -0.035 c 0,-0.287 0.145,-0.497 0.431,-0.628 0.288,-0.133 0.748,-0.198 1.38,-0.198 h 2.435 c 0.486,0 0.828,0.054 1.028,0.163 0.199,0.107 0.299,0.291 0.299,0.549 0,0.234 -0.107,0.411 -0.321,0.531 C 8.571,0.512 8.224,0.586 7.743,0.616 L 4.448,0.677 C 2.783,0.683 1.632,0.897 0.994,1.319 0.355,1.741 0.036,2.456 0.036,3.463 c 0,1.067 0.345,1.832 1.037,2.295 0.691,0.462 1.851,0.693 3.48,0.693 h 3.779 c 1.208,0 2.101,-0.222 2.681,-0.667 0.58,-0.446 0.877,-1.134 0.888,-2.066 H 8.57 C 8.488,3.894 8.31,4.027 8.034,4.118 7.758,4.209 7.387,4.255 6.917,4.255 H 4.589 C 4.144,4.255 3.831,4.209 3.652,4.118 3.474,4.027 3.384,3.876 3.384,3.666 3.384,3.449 3.479,3.293 3.665,3.199 3.853,3.106 4.28,3.039 4.948,2.998 h 4.071 c 1.189,-0.018 2.058,-0.263 2.61,-0.734 0.55,-0.472 0.825,-1.205 0.825,-2.202 0,-1.137 -0.306,-1.94 -0.918,-2.409 C 10.924,-2.815 9.844,-3.05 8.298,-3.05 H 4.914 c -1.911,0 -3.203,0.223 -3.877,0.669 C 0.364,-1.936 0.018,-1.142 0,0" /></g><g
           transform="translate(168.9563,37.8168)"
           id="g64"><path
             id="path66"
             style="fill:#231f20;fill-opacity:1;fill-rule:nonzero;stroke:none"
             d="M 0,0 H 1.513 C 2.285,0 2.829,0.12 3.144,0.361 3.456,0.6 3.613,1.004 3.613,1.573 V 2.725 C 3.613,3.288 3.45,3.691 3.125,3.938 2.8,4.184 2.263,4.307 1.513,4.307 H 0 c -0.796,0 -1.347,-0.12 -1.651,-0.356 C -1.957,3.713 -2.108,3.284 -2.108,2.663 V 1.556 c 0,-0.563 0.159,-0.963 0.478,-1.201 C -1.311,0.119 -0.767,0 0,0 m -2.056,5.15 c 0.182,0.627 0.577,1.07 1.187,1.327 0.608,0.258 1.605,0.387 2.988,0.387 C 3.877,6.864 5.12,6.619 5.85,6.126 6.579,5.634 6.944,4.793 6.944,3.603 V 0.544 c 0,-1.124 -0.365,-1.921 -1.094,-2.39 -0.73,-0.468 -1.991,-0.703 -3.784,-0.703 -1.441,0 -2.471,0.139 -3.089,0.417 -0.619,0.279 -0.962,0.743 -1.033,1.394 v -1.653 h -3.331 v 13.087 h 3.331 z" /></g><g
           transform="translate(181.1389,41.2797)"
           id="g68"><path
             id="path70"
             style="fill:#231f20;fill-opacity:1;fill-rule:nonzero;stroke:none"
             d="m 0,0 h 5.133 v 0.035 c 0,0.44 -0.14,0.75 -0.417,0.932 C 4.437,1.148 3.952,1.239 3.261,1.239 H 1.89 C 1.198,1.239 0.71,1.147 0.426,0.962 0.143,0.778 0,0.468 0,0.035 Z M 5.203,-2.777 H 8.341 V -2.918 C 8.341,-4.002 8.01,-4.783 7.348,-5.261 6.686,-5.738 5.593,-5.977 4.069,-5.977 H 0.976 c -1.395,0 -2.459,0.292 -3.196,0.875 -0.735,0.583 -1.102,1.425 -1.102,2.527 v 2.513 c 0,1.161 0.367,2.048 1.102,2.664 0.737,0.615 1.795,0.922 3.178,0.922 H 4.069 C 5.464,3.524 6.527,3.219 7.26,2.606 7.992,1.994 8.358,1.104 8.358,-0.062 V -2.039 H 0 c 0,-0.03 -0.003,-0.073 -0.009,-0.132 -0.006,-0.058 -0.009,-0.097 -0.009,-0.114 0,-0.533 0.154,-0.916 0.461,-1.147 0.308,-0.232 0.817,-0.347 1.526,-0.347 h 1.397 c 0.721,0 1.19,0.07 1.406,0.21 0.217,0.141 0.361,0.405 0.431,0.792" /></g><g
           transform="translate(196.9153,38.4315)"
           id="g72"><path
             id="path74"
             style="fill:#231f20;fill-opacity:1;fill-rule:nonzero;stroke:none"
             d="M 0,0 H 1.468 C 2.212,0 2.741,0.116 3.055,0.348 3.367,0.579 3.524,0.967 3.524,1.512 V 2.576 C 3.524,3.097 3.366,3.471 3.05,3.696 2.733,3.922 2.206,4.034 1.468,4.034 h -1.477 c -0.779,0 -1.315,-0.109 -1.608,-0.329 -0.293,-0.22 -0.44,-0.614 -0.44,-1.182 V 1.494 C -2.057,0.973 -1.904,0.601 -1.6,0.378 -1.295,0.156 -0.762,0.03 0,0 M 3.524,-1.441 C 3.337,-1.751 2.986,-1.973 2.475,-2.104 1.962,-2.236 1.146,-2.302 0.026,-2.302 c -2.109,0 -3.53,0.215 -4.262,0.646 -0.733,0.43 -1.099,1.205 -1.099,2.324 v 2.54 c 0,1.114 0.372,1.919 1.116,2.417 0.744,0.498 1.951,0.747 3.621,0.747 1.184,0 2.106,-0.123 2.765,-0.368 C 2.826,5.757 3.278,5.371 3.524,4.843 V 6.249 H 6.847 V -2.97 C 6.847,-3.984 6.459,-4.765 5.683,-5.312 4.906,-5.861 3.794,-6.135 2.347,-6.135 h -3.076 c -1.881,0 -3.122,0.195 -3.723,0.585 -0.601,0.389 -0.901,1.106 -0.901,2.149 v 0.14 h 3.332 c 0.023,-0.269 0.154,-0.457 0.391,-0.562 0.236,-0.105 0.687,-0.158 1.349,-0.158 h 1.898 c 0.68,0 1.173,0.154 1.481,0.461 0.308,0.308 0.462,0.811 0.462,1.508 0,0.099 -0.012,0.261 -0.036,0.483 z" /></g><path
           id="path76"
           style="fill:#231f20;fill-opacity:1;fill-rule:nonzero;stroke:none"
           d="m 209.73,35.426 h -3.331 v 9.255 h 3.331 z m 0,10.372 h -3.331 v 2.715 h 3.331 z" /><path
           id="path78"
           style="fill:#231f20;fill-opacity:1;fill-rule:nonzero;stroke:none"
           d="m 215.952,45.798 h -3.331 v 2.715 h 3.331 z m 0,-10.891 c 0,-0.99 -0.229,-1.672 -0.689,-2.047 -0.46,-0.376 -1.312,-0.563 -2.554,-0.563 -0.187,0 -0.393,0.007 -0.619,0.022 -0.225,0.015 -0.474,0.036 -0.743,0.066 v 2.338 c 0.023,0 0.093,-0.009 0.206,-0.026 0.115,-0.018 0.201,-0.027 0.26,-0.027 0.282,0 0.486,0.079 0.615,0.237 0.129,0.159 0.193,0.417 0.193,0.774 v 9 h 3.331 z" /><g
           transform="translate(221.885,35.4257)"
           id="g80"><path
             id="path82"
             style="fill:#231f20;fill-opacity:1;fill-rule:nonzero;stroke:none"
             d="M 0,0 H -3.33 V 9.203 H 0 V 7.779 C 0.382,8.347 0.869,8.75 1.464,8.987 2.059,9.225 2.956,9.343 4.158,9.343 5.664,9.343 6.793,9.062 7.546,8.5 8.299,7.937 8.675,7.096 8.675,5.977 V 0 H 5.353 V 4.659 C 5.353,5.479 5.168,6.018 4.8,6.276 4.43,6.534 3.724,6.663 2.681,6.663 1.714,6.663 1.026,6.494 0.615,6.157 0.205,5.82 0,5.256 0,4.465 Z" /></g><g
           transform="translate(236.3968,35.4257)"
           id="g84"><path
             id="path86"
             style="fill:#231f20;fill-opacity:1;fill-rule:nonzero;stroke:none"
             d="M 0,0 H -3.331 V 13.087 H 0 V 7.779 C 0.381,8.347 0.868,8.75 1.463,8.987 2.058,9.225 2.955,9.343 4.157,9.343 5.663,9.343 6.792,9.062 7.545,8.5 8.298,7.937 8.675,7.096 8.675,5.977 V 0 H 5.353 v 4.659 c 0,0.82 -0.185,1.359 -0.555,1.617 C 4.43,6.534 3.724,6.663 2.681,6.663 1.736,6.663 1.055,6.497 0.632,6.166 0.211,5.835 0,5.297 0,4.553 Z" /></g><g
           transform="translate(252.762,37.7992)"
           id="g88"><path
             id="path90"
             style="fill:#231f20;fill-opacity:1;fill-rule:nonzero;stroke:none"
             d="M 0,0 H 1.564 C 2.361,0 2.921,0.125 3.243,0.373 3.565,0.622 3.727,1.046 3.727,1.644 V 2.865 C 3.727,3.457 3.563,3.877 3.234,4.126 2.906,4.375 2.35,4.5 1.564,4.5 H 0 C -0.826,4.5 -1.396,4.377 -1.71,4.131 -2.023,3.884 -2.18,3.445 -2.18,2.813 V 1.626 C -2.18,1.04 -2.015,0.622 -1.684,0.373 -1.353,0.125 -0.791,0 0,0 m -0.88,-2.497 c -1.663,0 -2.849,0.264 -3.558,0.792 -0.709,0.527 -1.064,1.397 -1.064,2.61 v 2.514 c 0,1.319 0.346,2.246 1.036,2.782 0.693,0.536 1.882,0.803 3.57,0.803 h 3.348 c 1.635,0 2.811,-0.27 3.529,-0.812 C 6.699,5.65 7.058,4.764 7.058,3.533 V 0.958 c 0,-1.249 -0.349,-2.136 -1.046,-2.663 -0.698,-0.528 -1.884,-0.792 -3.56,-0.792 z" /></g><g
           transform="translate(266.0511,35.4257)"
           id="g92"><path
             id="path94"
             style="fill:#231f20;fill-opacity:1;fill-rule:nonzero;stroke:none"
             d="m 0,0 h -3.349 v 6.733 h -1.617 v 2.522 h 1.617 v 0.299 c 0,1.301 0.305,2.215 0.914,2.742 0.61,0.528 1.673,0.791 3.191,0.791 H 2.883 V 10.785 H 2.786 c -0.369,0.023 -0.633,0.034 -0.791,0.034 -0.726,0 -1.243,-0.096 -1.551,-0.289 -0.308,-0.194 -0.462,-0.519 -0.462,-0.976 0,-0.076 0.002,-0.136 0.005,-0.18 C -0.01,9.331 -0.006,9.291 0,9.255 H 3.059 V 6.733 L 0,6.733 Z" /></g><g
           transform="translate(165.3792,57.5233)"
           id="g96"><path
             id="path98"
             style="fill:#abaa00;fill-opacity:1;fill-rule:nonzero;stroke:none"
             d="M 0,0 H 1.481 C 2.552,0 3.368,0.335 3.927,1.006 4.485,1.677 4.765,2.539 4.765,3.592 4.765,4.561 4.463,5.367 3.856,6.009 3.252,6.652 2.445,6.974 1.439,6.974 H 0 Z m -1.468,8.204 h 2.936 c 1.396,0 2.543,-0.434 3.438,-1.3 C 5.8,6.037 6.248,4.934 6.248,3.592 6.248,2.193 5.825,1.043 4.981,0.14 4.139,-0.764 2.977,-1.216 1.495,-1.216 h -2.963 z" /></g><g
           transform="translate(175.3714,57.5092)"
           id="g100"><path
             id="path102"
             style="fill:#abaa00;fill-opacity:1;fill-rule:nonzero;stroke:none"
             d="m 0,0 h 3.998 v -1.202 h -5.437 v 9.42 H 3.928 V 7.016 H 0 V 4.109 H 3.48 V 2.907 H 0 Z" /></g><g
           transform="translate(181.8147,56.307)"
           id="g104"><path
             id="path106"
             style="fill:#abaa00;fill-opacity:1;fill-rule:nonzero;stroke:none"
             d="M 0,0 V 9.42 H 1.706 L 4.025,5.479 C 4.454,4.742 4.844,4.062 5.192,3.438 5.542,2.814 5.781,2.376 5.913,2.125 L 6.108,1.733 C 6.053,2.581 6.023,3.825 6.023,5.464 V 9.42 H 7.464 L 7.464,0 H 5.759 L 3.425,3.928 C 3.005,4.635 2.621,5.304 2.271,5.933 1.923,6.562 1.678,7.016 1.538,7.295 L 1.328,7.701 C 1.402,6.769 1.439,5.516 1.439,3.941 V 0 Z" /></g><g
           transform="translate(193.4846,57.5233)"
           id="g108"><path
             id="path110"
             style="fill:#abaa00;fill-opacity:1;fill-rule:nonzero;stroke:none"
             d="M 0,0 H 1.481 C 2.552,0 3.368,0.335 3.927,1.006 4.485,1.677 4.765,2.539 4.765,3.592 4.765,4.561 4.463,5.367 3.856,6.009 3.252,6.652 2.445,6.974 1.439,6.974 H 0 Z m -1.468,8.204 h 2.935 c 1.397,0 2.544,-0.434 3.439,-1.3 C 5.8,6.037 6.247,4.934 6.247,3.592 6.247,2.193 5.825,1.043 4.981,0.14 4.139,-0.764 2.977,-1.216 1.495,-1.216 h -2.963 z" /></g><g
           transform="translate(203.4768,57.5092)"
           id="g112"><path
             id="path114"
             style="fill:#abaa00;fill-opacity:1;fill-rule:nonzero;stroke:none"
             d="m 0,0 h 3.997 v -1.202 h -5.436 v 9.42 H 3.928 V 7.016 H 0 V 4.109 H 3.48 V 2.907 H 0 Z" /></g><g
           transform="translate(211.3596,64.5248)"
           id="g116"><path
             id="path118"
             style="fill:#abaa00;fill-opacity:1;fill-rule:nonzero;stroke:none"
             d="m 0,0 v -3.438 h 1.3 c 0.596,0 1.049,0.156 1.356,0.468 0.307,0.312 0.461,0.729 0.461,1.251 C 3.117,-0.573 2.488,0 1.229,0 Z M 3.453,-8.218 1.244,-4.64 H 0 v -3.578 h -1.439 v 9.42 H 1.188 C 2.27,1.202 3.103,0.939 3.69,0.412 4.277,-0.114 4.571,-0.829 4.571,-1.733 4.562,-2.395 4.394,-2.956 4.067,-3.417 3.742,-3.878 3.29,-4.211 2.711,-4.417 l 2.461,-3.801 z" /></g><g
           transform="translate(218.4319,56.307)"
           id="g120"><path
             id="path122"
             style="fill:#abaa00;fill-opacity:1;fill-rule:nonzero;stroke:none"
             d="M 0,0 0.727,9.42 H 2.432 L 3.689,5.982 C 3.913,5.395 4.137,4.773 4.36,4.116 4.584,3.459 4.752,2.948 4.863,2.586 L 5.046,2.041 c 0.428,1.266 0.898,2.58 1.411,3.941 L 7.771,9.42 H 9.476 L 10.343,0 H 8.917 L 8.582,3.689 8.288,7.464 C 7.869,6.28 7.411,5.021 6.919,3.689 L 5.604,0.182 H 4.473 L 3.2,3.689 1.929,7.407 C 1.929,6.997 1.854,5.758 1.705,3.689 L 1.425,0 Z" /></g><g
           transform="translate(233.2679,63.6239)"
           id="g124"><path
             id="path126"
             style="fill:#abaa00;fill-opacity:1;fill-rule:nonzero;stroke:none"
             d="m 0,0 c -0.498,-0.629 -0.747,-1.485 -0.747,-2.565 0,-1.081 0.255,-1.938 0.768,-2.572 0.512,-0.634 1.198,-0.95 2.054,-0.95 0.886,0 1.575,0.312 2.069,0.937 0.494,0.623 0.741,1.485 0.741,2.585 0,1.089 -0.249,1.947 -0.747,2.572 C 3.639,0.631 2.947,0.943 2.062,0.943 1.186,0.943 0.499,0.628 0,0 m -2.257,-2.565 c 0,1.462 0.392,2.637 1.175,3.523 0.781,0.884 1.83,1.327 3.144,1.327 1.341,0 2.399,-0.441 3.172,-1.322 0.774,-0.88 1.161,-2.056 1.161,-3.528 0,-1.473 -0.39,-2.651 -1.167,-3.536 -0.779,-0.885 -1.83,-1.328 -3.153,-1.328 -1.313,0 -2.363,0.443 -3.151,1.328 -0.787,0.885 -1.181,2.063 -1.181,3.536" /></g><g
           transform="translate(242.0237,56.307)"
           id="g128"><path
             id="path130"
             style="fill:#abaa00;fill-opacity:1;fill-rule:nonzero;stroke:none"
             d="M 0,0 V 9.42 H 1.705 L 4.024,5.479 C 4.453,4.742 4.843,4.062 5.192,3.438 5.541,2.814 5.78,2.376 5.912,2.125 L 6.107,1.733 C 6.052,2.581 6.023,3.825 6.023,5.464 V 9.42 H 7.464 L 7.464,0 H 5.758 L 3.424,3.928 C 3.005,4.635 2.62,5.304 2.271,5.933 1.922,6.562 1.678,7.016 1.538,7.295 L 1.327,7.701 C 1.402,6.769 1.439,5.516 1.439,3.941 V 0 Z" /></g><g
           transform="translate(253.6946,57.5233)"
           id="g132"><path
             id="path134"
             style="fill:#abaa00;fill-opacity:1;fill-rule:nonzero;stroke:none"
             d="M 0,0 H 1.481 C 2.552,0 3.367,0.335 3.926,1.006 4.485,1.677 4.765,2.539 4.765,3.592 4.765,4.561 4.462,5.367 3.856,6.009 3.251,6.652 2.444,6.974 1.438,6.974 H 0 Z m -1.469,8.204 h 2.936 c 1.397,0 2.544,-0.434 3.438,-1.3 C 5.799,6.037 6.247,4.934 6.247,3.592 6.247,2.193 5.824,1.043 4.981,0.14 4.138,-0.764 2.976,-1.216 1.494,-1.216 h -2.963 z" /></g><g
           transform="translate(263.6858,57.5092)"
           id="g136"><path
             id="path138"
             style="fill:#abaa00;fill-opacity:1;fill-rule:nonzero;stroke:none"
             d="m 0,0 h 3.998 v -1.202 h -5.436 v 9.42 H 3.928 V 7.016 H 0 V 4.109 H 3.481 V 2.907 H 0 Z" /></g><g
           transform="translate(146.971,56.3456)"
           id="g140"><path
             id="path142"
             style="fill:#abaa00;fill-opacity:1;fill-rule:nonzero;stroke:none"
             d="m 0,0 h -130.145 l 44.122,0.747 v 8.868 l 5.702,5.702 7.627,-7.627 6.185,6.186 v 6.459 l 3.136,3.136 3.135,-3.125 v -6.47 l 3.029,-3.03 8.574,8.574 4.492,-4.482 0.021,-8.552 h 0.011 V 0.747 Z" /></g><path
           id="path144"
           style="fill:#9da538;fill-opacity:1;fill-rule:nonzero;stroke:none"
           d="m 69.722,0 h -34.86 v 3.833 h 34.86 z" /><path
           id="path146"
           style="fill:#423930;fill-opacity:1;fill-rule:nonzero;stroke:none"
           d="M 148.128,0 H 69.722 v 3.833 h 78.406 z" /></g></g></g></svg>
